<svg width="10" height="10" viewBox="0 0 10 10" fill="none" xmlns="http://www.w3.org/2000/svg">
<path d="M1.51252 8.8243C1.49539 8.89324 1.49508 8.96492 1.51162 9.03397C1.52816 9.10303 1.56111 9.16768 1.60801 9.22306C1.65491 9.27845 1.71454 9.32314 1.78243 9.35378C1.85032 9.38442 1.92471 9.40022 2.00002 9.4C2.09879 9.40002 2.19535 9.37255 2.27753 9.32105L5.00004 7.61511L7.72256 9.32105C7.80773 9.3742 7.90817 9.40156 8.01038 9.39945C8.11258 9.39734 8.21165 9.36587 8.29426 9.30926C8.37687 9.25265 8.43905 9.17363 8.47245 9.08281C8.50584 8.992 8.50885 8.89375 8.48106 8.80128L7.56656 5.79357L9.83457 3.87522C9.90721 3.81375 9.95908 3.73361 9.98378 3.64472C10.0085 3.55582 10.0049 3.46208 9.97352 3.37507C9.94213 3.28806 9.8843 3.21161 9.80717 3.15517C9.73004 3.09873 9.63701 3.06477 9.53957 3.0575L6.68905 2.84414L5.45554 0.277727C5.41626 0.195068 5.35236 0.124862 5.27157 0.0755804C5.19077 0.0262992 5.09652 4.97582e-05 5.0002 7.06709e-08C4.90388 -4.96169e-05 4.80961 0.0261026 4.72875 0.0753004C4.6479 0.124498 4.58392 0.194639 4.54454 0.277257L3.31103 2.84414L0.460516 3.05703C0.364743 3.06416 0.273184 3.09708 0.196792 3.15184C0.1204 3.2066 0.06241 3.28088 0.0297599 3.36581C-0.00289021 3.45073 -0.00881802 3.5427 0.0126857 3.63071C0.0341894 3.71872 0.082214 3.79904 0.151014 3.86206L2.25803 5.79216L1.51252 8.8243ZM5.00004 1.6124L6.02105 3.73706L6.31505 3.75914H6.31555L8.30156 3.90718L6.66605 5.29072L6.66555 5.29166L6.43405 5.48716L6.51955 5.76773V5.76914L7.14605 7.82988L5.00004 6.48534V1.6124Z" fill="#FFD168"/>
</svg>
